<svg id="Capa_1" data-name="Capa 1" xmlns="http://www.w3.org/2000/svg" viewBox="0 0 12 16"><defs><style>.cls-1{fill:#1146ef;}.cls-2{fill:#fefefe;}</style></defs><title>listado</title><path class="cls-1" d="M21,15.63q0,3.31,0,6.62a0.72,0.72,0,0,1-.58.74H9.75A0.72,0.72,0,0,1,9,22.27Q9,15.63,9,9a0.72,0.72,0,0,1,.76-0.73h2c0.08,0,.11,0,0.11-0.1A1.18,1.18,0,0,1,13.05,7h3.89a1.19,1.19,0,0,1,1.18,1.15c0,0.08,0,.1.11,0.1,0.66,0,1.32,0,2,0A0.76,0.76,0,0,1,21,9c0,1.92,0,3.85,0,5.77v0.84Z" transform="translate(-9 -7)"/><path class="cls-2" d="M20.47,15.63q0,3.29,0,6.59a0.24,0.24,0,0,1-.29.28H9.8a0.24,0.24,0,0,1-.28-0.28q0-6.59,0-13.19A0.24,0.24,0,0,1,9.8,8.75h2c0.07,0,.09,0,0.09.08A1.19,1.19,0,0,0,13.06,10h3.87a1.19,1.19,0,0,0,1.19-1.09,0.1,0.1,0,0,1,.13-0.12h1.9c0.26,0,.32.06,0.32,0.31v6.57Z" transform="translate(-9 -7)"/><path class="cls-2" d="M15,9.45H13.12a0.68,0.68,0,0,1-.72-0.7c0-.19,0-0.37,0-0.56a0.69,0.69,0,0,1,.7-0.68H16.9a0.69,0.69,0,0,1,.7.66q0,0.31,0,.61a0.68,0.68,0,0,1-.71.66H15Z" transform="translate(-9 -7)"/><path class="cls-1" d="M12.72,12.14c0,0.28,0,.56,0,0.84a0.25,0.25,0,0,1-.28.27H10.7A0.25,0.25,0,0,1,10.42,13q0-.84,0-1.68A0.25,0.25,0,0,1,10.69,11h1.75a0.25,0.25,0,0,1,.28.27C12.72,11.58,12.72,11.86,12.72,12.14Z" transform="translate(-9 -7)"/><path class="cls-1" d="M11.56,20.22H10.7A0.26,0.26,0,0,1,10.41,20q0-.84,0-1.68A0.26,0.26,0,0,1,10.7,18h1.74a0.25,0.25,0,0,1,.28.27q0,0.84,0,1.69a0.25,0.25,0,0,1-.28.27H11.56Z" transform="translate(-9 -7)"/><path class="cls-1" d="M11.56,16.74H10.71a0.26,0.26,0,0,1-.3-0.29q0-.83,0-1.66a0.26,0.26,0,0,1,.29-0.28h1.73a0.26,0.26,0,0,1,.29.28q0,0.83,0,1.67a0.26,0.26,0,0,1-.3.28H11.56Z" transform="translate(-9 -7)"/><path class="cls-1" d="M16.59,19.37h-2.7A0.25,0.25,0,0,1,13.63,19a0.23,0.23,0,0,1,.2-0.16h5.45a0.26,0.26,0,0,1,.3.31,0.25,0.25,0,0,1-.28.2H16.59Z" transform="translate(-9 -7)"/><path class="cls-1" d="M16.61,11.89h2.7a0.25,0.25,0,0,1,.26.35,0.23,0.23,0,0,1-.19.15H13.92a0.26,0.26,0,0,1-.31-0.28,0.25,0.25,0,0,1,.27-0.22h2.72Z" transform="translate(-9 -7)"/><path class="cls-1" d="M16.6,15.88H13.89a0.25,0.25,0,0,1-.28-0.3,0.24,0.24,0,0,1,.21-0.2h5.44a0.26,0.26,0,0,1,.31.31,0.24,0.24,0,0,1-.27.19H16.6Z" transform="translate(-9 -7)"/><path class="cls-2" d="M11.57,12.75H11c-0.06,0-.09,0-0.09-0.08,0-.35,0-0.71,0-1.06,0-.07,0-0.08.08-0.08h1.09c0.06,0,.09,0,0.09.08,0,0.36,0,.71,0,1.07,0,0.06,0,.08-0.08.07H11.57Z" transform="translate(-9 -7)"/><path class="cls-2" d="M12.2,19.11c0,0.18,0,.36,0,0.54s0,0.07-.07.07H11a0.06,0.06,0,0,1-.07-0.07c0-.36,0-0.71,0-1.07,0-.06,0-0.07.08-0.07h1.11c0.07,0,.08,0,0.07.08S12.2,18.93,12.2,19.11Z" transform="translate(-9 -7)"/><path class="cls-2" d="M12.2,15.64c0,0.17,0,.35,0,0.52s0,0.08-.08.08H11c-0.06,0-.09,0-0.09-0.08q0-.53,0-1.06A0.07,0.07,0,0,1,11,15h1.11c0.06,0,.07,0,0.07.07S12.2,15.45,12.2,15.64Z" transform="translate(-9 -7)"/></svg>