<?xml version="1.0" encoding="utf-8"?>
<!-- Generator: Adobe Illustrator 19.2.1, SVG Export Plug-In . SVG Version: 6.00 Build 0)  -->
<svg version="1.1" id="Capa_1" xmlns="http://www.w3.org/2000/svg" xmlns:xlink="http://www.w3.org/1999/xlink" x="0px" y="0px"
	 viewBox="0 0 48 48" style="enable-background:new 0 0 48 48;" xml:space="preserve">
<style type="text/css">
	.st0{fill:#E34F1E;}
	.st1{fill:#FFFFFF;}
</style>
<g>
	<path class="st0" d="M24,6c10.1,0,18.1,8.2,18,18.2c-0.1,9.8-8.2,17.9-18.2,17.8C14,41.9,6,33.9,6,23.9C6,14.1,14.1,6,24,6z"/>
	<path class="st1" d="M37.1,17c0.6,1.1,1,2.2,1.3,3.3c0.2,0.9,0.3,1.7,0.4,2.6c0,0.2,0,0.2-0.2,0.2c-0.6,0-1.1,0-1.7,0
		c-0.1,0-0.2,0-0.2,0.2c0,0.4,0,0.9,0,1.3c0,0.1,0,0.2,0.2,0.2c0.6,0,1.2,0,1.8,0c0.1,0,0.2,0,0.2,0.2c-0.1,2.1-0.7,4.1-1.7,5.9
		c0,0,0,0-0.1,0.1c-0.5-0.3-0.9-0.5-1.4-0.8c-0.1-0.1-0.2-0.1-0.3,0.1c-0.1,0.2-0.2,0.4-0.4,0.6c-0.1,0.1,0,0.1,0.1,0.2
		c0.4,0.2,0.9,0.5,1.3,0.8c0.1,0.1,0.1,0.1,0.1,0.2c-1.2,1.8-2.7,3.3-4.5,4.5c-0.1,0.1-0.2,0-0.2-0.1c-0.2-0.4-0.5-0.9-0.7-1.3
		C31,35,31,35,30.8,35.1c-0.2,0.1-0.4,0.3-0.7,0.4c-0.1,0.1-0.1,0.1-0.1,0.2c0.3,0.4,0.5,0.9,0.8,1.3c0.1,0.1,0,0.2-0.1,0.2
		c-1.3,0.7-2.7,1.1-4.2,1.4c-0.5,0.1-1.1,0.2-1.7,0.2c-0.1,0-0.2,0-0.2-0.2c0-0.6,0-1.1,0-1.7c0-0.1,0-0.2-0.2-0.2
		c-0.4,0-0.8,0-1.3,0c-0.2,0-0.2,0-0.2,0.2c0,0.6,0,1.1,0,1.7c0,0.1,0,0.2-0.2,0.2c-1.9-0.1-3.7-0.6-5.4-1.4
		c-0.2-0.1-0.5-0.1-0.5-0.3c0-0.1,0.2-0.3,0.3-0.5c0.2-0.3,0.3-0.6,0.5-0.9c0.1-0.1,0.1-0.1,0-0.2c-0.2-0.1-0.5-0.3-0.7-0.4
		c-0.1-0.1-0.1,0-0.2,0.1c-0.3,0.4-0.5,0.9-0.8,1.3c-0.1,0.1-0.1,0.1-0.2,0.1c-1.8-1.2-3.3-2.7-4.5-4.5c-0.1-0.1-0.1-0.2,0.1-0.2
		c0.4-0.2,0.9-0.5,1.3-0.7C13,31,13,31,12.9,30.9c-0.1-0.2-0.3-0.4-0.4-0.7c-0.1-0.1-0.1-0.1-0.2-0.1c-0.4,0.3-0.9,0.5-1.3,0.8
		c-0.1,0.1-0.1,0.1-0.2-0.1c-0.8-1.6-1.4-3.3-1.6-5.1c0-0.2,0-0.5-0.1-0.7c0-0.2,0-0.2,0.2-0.2c0.6,0,1.1,0,1.7,0
		c0.1,0,0.2,0,0.2-0.2c0-0.4,0-0.9,0-1.3c0-0.1,0-0.2-0.2-0.2c-0.6,0-1.1,0-1.7,0c-0.1,0-0.2,0-0.2-0.2c0.2-2,0.7-4,1.6-5.8
		c0.1-0.1,0.1-0.2,0.3-0.1c0.4,0.3,0.8,0.5,1.3,0.7c0.1,0.1,0.2,0.1,0.3-0.1c0.1-0.2,0.2-0.4,0.4-0.6c0.1-0.1,0-0.1-0.1-0.2
		c-0.4-0.2-0.9-0.5-1.3-0.7c-0.1-0.1-0.1-0.1-0.1-0.2c1.2-1.8,2.7-3.3,4.5-4.5c0.1-0.1,0.2,0,0.2,0.1c0.2,0.4,0.5,0.9,0.7,1.3
		c0.1,0.1,0.1,0.1,0.2,0.1c0.2-0.1,0.4-0.3,0.7-0.4c0.1-0.1,0.1-0.1,0.1-0.2c-0.3-0.4-0.5-0.9-0.8-1.3c-0.1-0.1,0-0.1,0.1-0.2
		c1.4-0.7,2.9-1.2,4.5-1.5c0.5-0.1,0.9-0.1,1.4-0.2c0.1,0,0.2,0,0.2,0.2c0,0.6,0,1.1,0,1.7c0,0.2,0,0.2,0.2,0.2c0.4,0,0.8,0,1.3,0
		c0.1,0,0.2,0,0.2-0.2c0-0.6,0-1.2,0-1.7c0-0.1,0-0.2,0.2-0.2c2.1,0.2,4,0.7,5.8,1.6c0.1,0.1,0.1,0.1,0.1,0.2
		c-0.3,0.4-0.5,0.9-0.7,1.3c-0.1,0.1-0.1,0.2,0.1,0.2c0.2,0.1,0.4,0.2,0.7,0.4c0.1,0.1,0.1,0,0.2-0.1c0.2-0.4,0.5-0.9,0.8-1.3
		c0.1-0.1,0.1-0.1,0.2,0c1.8,1.2,3.3,2.7,4.5,4.5c0.1,0.1,0,0.1,0,0.2c-0.4,0.2-0.9,0.5-1.3,0.8C35.1,17,35,17,35.1,17.1
		c0.1,0.2,0.2,0.4,0.3,0.6c0.1,0.2,0.1,0.2,0.3,0.1C36.2,17.6,36.7,17.3,37.1,17z"/>
	<path class="st0" d="M24,14c0.2,0.3,0.4,0.5,0.6,0.7c0.1,0.1,0.1,0.2,0.1,0.3c0,2.6,0,5.2,0,7.7c0,0.1,0,0.2,0.2,0.3
		c0.1,0.1,0.3,0.2,0.3,0.4c0.1,0.1,0.1,0.2,0.3,0.2c1.3,0,2.6,0,3.9,0c0.1,0,0.2,0,0.3,0c0.6-0.1,1.1,0.1,1.5,0.5
		c0.1,0.1,0.1,0.1,0,0.2c-0.2,0.1-0.5,0.3-0.7,0.4c-0.1,0.1-0.2,0-0.3,0c-1.7,0-3.3,0-5,0c-0.1,0-0.2,0-0.3,0.1
		c-0.5,0.5-1.3,0.4-1.7-0.1c-0.4-0.5-0.4-1.3,0.2-1.7c0.1-0.1,0.2-0.2,0.2-0.3c0-2.5,0-5.1,0-7.6c0-0.2,0-0.4,0.2-0.6
		C23.7,14.4,23.8,14.2,24,14z"/>
</g>
</svg>
